<svg id="Layer_1" data-name="Layer 1" xmlns="http://www.w3.org/2000/svg" viewBox="0 0 1476 578"><defs><style>.cls-1{fill:#fff;}</style></defs><title>IOTA Logo White</title><path class="cls-1" d="M633.35,196.56H612.16V382.37h21.19Z"/><path class="cls-1" d="M701.57,289.31c0-52.06,43.63-96.15,94.94-96.15,51.61,0,94.62,43.76,94.62,96.15s-43.31,96.17-94.62,96.17C745.5,385.77,701.57,341.71,701.57,289.31Zm168.37,0c0-41.28-33.48-76.42-73.43-76.42S722.79,248,722.79,289.31c0,41.62,33.78,76.72,73.72,76.72S869.94,330.93,869.94,289.31Z"/><path class="cls-1" d="M999.88,216.59H937.52v-20h145.63v20h-62.38V382.37H999.58Z"/><path class="cls-1" d="M1194.35,222.44,1124,382.37h-23L1178.07,207a17.42,17.42,0,0,1,16-10.48A17.13,17.13,0,0,1,1210,207l77.12,175.33h-23Z"/><path class="cls-1" d="M407.07,179.71a17.24,17.24,0,1,0-17.3-17.24A17.26,17.26,0,0,0,407.07,179.71Z"/><path class="cls-1" d="M426.51,423.22A17.24,17.24,0,1,0,409.22,406,17.25,17.25,0,0,0,426.51,423.22Z"/><path class="cls-1" d="M412,222.81a14.47,14.47,0,1,0-14.5-14.47A14.49,14.49,0,0,0,412,222.81Z"/><path class="cls-1" d="M450.59,228.35a14.47,14.47,0,1,0-14.51-14.47A14.48,14.48,0,0,0,450.59,228.35Z"/><path class="cls-1" d="M407.07,259.45a12.32,12.32,0,1,0-12.35-12.32A12.32,12.32,0,0,0,407.07,259.45Z"/><path class="cls-1" d="M445.64,264.68a12.31,12.31,0,1,0-12.35-12.32A12.33,12.33,0,0,0,445.64,264.68Z"/><path class="cls-1" d="M476.5,276.68a12.31,12.31,0,1,0-12.34-12.3A12.32,12.32,0,0,0,476.5,276.68Z"/><path class="cls-1" d="M434.22,294.23a10.78,10.78,0,1,0-10.8-10.77A10.79,10.79,0,0,0,434.22,294.23Z"/><path class="cls-1" d="M395.64,289a10.78,10.78,0,1,0-10.79-10.77A10.79,10.79,0,0,0,395.64,289Z"/><path class="cls-1" d="M465.39,306.24a10.78,10.78,0,1,0-10.8-10.78A10.79,10.79,0,0,0,465.39,306.24Z"/><path class="cls-1" d="M418.79,316.71a9.24,9.24,0,1,0-9.26-9.24A9.26,9.26,0,0,0,418.79,316.71Z"/><path class="cls-1" d="M450,328.41a9.24,9.24,0,1,0-9.25-9.24A9.26,9.26,0,0,0,450,328.41Z"/><path class="cls-1" d="M380.52,311.16a9.24,9.24,0,1,0-9.26-9.24A9.24,9.24,0,0,0,380.52,311.16Z"/><path class="cls-1" d="M401.82,331.79a7.7,7.7,0,1,0-7.72-7.7A7.71,7.71,0,0,0,401.82,331.79Z"/><path class="cls-1" d="M415.08,353a6.77,6.77,0,1,0-6.78-6.77A6.77,6.77,0,0,0,415.08,353Z"/><path class="cls-1" d="M398.73,357.35a5.55,5.55,0,1,0-5.55-5.55A5.57,5.57,0,0,0,398.73,357.35Z"/><path class="cls-1" d="M384.22,341.33a6.77,6.77,0,1,0-6.79-6.77A6.77,6.77,0,0,0,384.22,341.33Z"/><path class="cls-1" d="M363.24,326.56a7.7,7.7,0,1,0-7.72-7.7A7.71,7.71,0,0,0,363.24,326.56Z"/><path class="cls-1" d="M362.93,268.68a7.7,7.7,0,1,0-7.72-7.7A7.71,7.71,0,0,0,362.93,268.68Z"/><path class="cls-1" d="M366.32,241.59a6.78,6.78,0,1,0-6.79-6.77A6.79,6.79,0,0,0,366.32,241.59Z"/><path class="cls-1" d="M373.73,219.43a5.55,5.55,0,1,0-5.55-5.55A5.57,5.57,0,0,0,373.73,219.43Z"/><path class="cls-1" d="M360.76,209a6.77,6.77,0,1,0-6.78-6.77A6.77,6.77,0,0,0,360.76,209Z"/><path class="cls-1" d="M432.68,343.49a7.7,7.7,0,1,0-7.72-7.7A7.71,7.71,0,0,0,432.68,343.49Z"/><path class="cls-1" d="M343.18,200a7.7,7.7,0,1,0-7.73-7.7A7.71,7.71,0,0,0,343.18,200Z"/><path class="cls-1" d="M348.42,232.67a7.7,7.7,0,1,0-7.72-7.7A7.71,7.71,0,0,0,348.42,232.67Z"/><path class="cls-1" d="M339.78,263.75a9.23,9.23,0,1,0-9.25-9.23A9.25,9.25,0,0,0,339.78,263.75Z"/><path class="cls-1" d="M311.69,263.75A10.78,10.78,0,1,0,300.89,253,10.78,10.78,0,0,0,311.69,263.75Z"/><path class="cls-1" d="M279,271.15a12.32,12.32,0,1,0-12.35-12.32A12.34,12.34,0,0,0,279,271.15Z"/><path class="cls-1" d="M243.17,288.69a14.47,14.47,0,1,0-14.5-14.47A14.49,14.49,0,0,0,243.17,288.69Z"/><path class="cls-1" d="M206.14,318.25A17.24,17.24,0,1,0,188.85,301,17.27,17.27,0,0,0,206.14,318.25Z"/><path class="cls-1" d="M228.67,252.67a14.47,14.47,0,1,0-14.51-14.47A14.48,14.48,0,0,0,228.67,252.67Z"/><path class="cls-1" d="M264.46,235.13a12.32,12.32,0,1,0-12.33-12.32A12.33,12.33,0,0,0,264.46,235.13Z"/><path class="cls-1" d="M259.22,202.49a12.32,12.32,0,1,0-12.34-12.31A12.33,12.33,0,0,0,259.22,202.49Z"/><path class="cls-1" d="M291.94,195.1a10.77,10.77,0,1,0-10.81-10.77A10.78,10.78,0,0,0,291.94,195.1Z"/><path class="cls-1" d="M320,195.1a9.23,9.23,0,1,0-9.25-9.23A9.25,9.25,0,0,0,320,195.1Z"/><path class="cls-1" d="M325.27,227.73A9.23,9.23,0,1,0,316,218.5,9.25,9.25,0,0,0,325.27,227.73Z"/><path class="cls-1" d="M297.19,228a10.78,10.78,0,1,0-10.81-10.77A10.79,10.79,0,0,0,297.19,228Z"/><path class="cls-1" d="M266.63,309.93a5.54,5.54,0,1,0-5.56-5.54A5.55,5.55,0,0,0,266.63,309.93Z"/><path class="cls-1" d="M288.86,307.16a6.77,6.77,0,1,0-6.8-6.77A6.79,6.79,0,0,0,288.86,307.16Z"/><path class="cls-1" d="M313.23,297.93a7.7,7.7,0,1,0-7.71-7.69A7.7,7.7,0,0,0,313.23,297.93Z"/><path class="cls-1" d="M319.1,322.55a9.23,9.23,0,1,0-9.26-9.23A9.24,9.24,0,0,0,319.1,322.55Z"/><path class="cls-1" d="M289.47,328.4a7.7,7.7,0,1,0-7.71-7.7A7.71,7.71,0,0,0,289.47,328.4Z"/><path class="cls-1" d="M263.23,328.1a6.78,6.78,0,1,0-6.78-6.78A6.79,6.79,0,0,0,263.23,328.1Z"/><path class="cls-1" d="M263.54,349.34a7.7,7.7,0,1,0-7.72-7.7A7.71,7.71,0,0,0,263.54,349.34Z"/><path class="cls-1" d="M295,353.34a9.24,9.24,0,1,0-9.25-9.24A9.25,9.25,0,0,0,295,353.34Z"/><path class="cls-1" d="M331.76,349.34A10.78,10.78,0,1,0,321,338.56,10.79,10.79,0,0,0,331.76,349.34Z"/><path class="cls-1" d="M353.36,376.12A12.32,12.32,0,1,0,341,363.81,12.33,12.33,0,0,0,353.36,376.12Z"/><path class="cls-1" d="M308,379.81A10.78,10.78,0,1,0,297.19,369,10.79,10.79,0,0,0,308,379.81Z"/><path class="cls-1" d="M282.37,400.75A10.78,10.78,0,1,0,271.57,390,10.79,10.79,0,0,0,282.37,400.75Z"/><path class="cls-1" d="M303.67,427.84a12.32,12.32,0,1,0-12.35-12.31A12.32,12.32,0,0,0,303.67,427.84Z"/><path class="cls-1" d="M360.46,432.77A14.47,14.47,0,1,0,346,418.3,14.49,14.49,0,0,0,360.46,432.77Z"/><path class="cls-1" d="M329.29,406.9a12.32,12.32,0,1,0-12.35-12.31A12.33,12.33,0,0,0,329.29,406.9Z"/><path class="cls-1" d="M384.22,402a14.47,14.47,0,1,0-14.5-14.47A14.49,14.49,0,0,0,384.22,402Z"/><path class="cls-1" d="M269.41,374.28a9.24,9.24,0,1,0-9.27-9.24A9.25,9.25,0,0,0,269.41,374.28Z"/></svg>